<svg width="108" height="33" viewBox="0 0 108 33" fill="none" xmlns="http://www.w3.org/2000/svg">
<circle cx="15.5" cy="15.5" r="15.5" fill="url(#paint0_linear_102_885)"/>
<path d="M44.0872 9.644C45.7005 9.644 47.1158 9.95933 48.3332 10.59C49.5652 11.2207 50.5112 12.1227 51.1712 13.296C51.8458 14.4547 52.1832 15.804 52.1832 17.344C52.1832 18.884 51.8458 20.2333 51.1712 21.392C50.5112 22.536 49.5652 23.4233 48.3332 24.054C47.1158 24.6847 45.7005 25 44.0872 25H38.7192V9.644H44.0872ZM43.9772 22.382C45.5905 22.382 46.8372 21.942 47.7172 21.062C48.5972 20.182 49.0372 18.9427 49.0372 17.344C49.0372 15.7453 48.5972 14.4987 47.7172 13.604C46.8372 12.6947 45.5905 12.24 43.9772 12.24H41.7992V22.382H43.9772ZM53.6967 18.862C53.6967 17.63 53.9387 16.5373 54.4227 15.584C54.9214 14.6307 55.5887 13.8973 56.4247 13.384C57.2754 12.8707 58.2214 12.614 59.2627 12.614C60.172 12.614 60.964 12.7973 61.6387 13.164C62.328 13.5307 62.878 13.9927 63.2887 14.55V12.812H66.3907V25H63.2887V23.218C62.8927 23.79 62.3427 24.2667 61.6387 24.648C60.9494 25.0147 60.15 25.198 59.2407 25.198C58.214 25.198 57.2754 24.934 56.4247 24.406C55.5887 23.878 54.9214 23.1373 54.4227 22.184C53.9387 21.216 53.6967 20.1087 53.6967 18.862ZM63.2887 18.906C63.2887 18.158 63.142 17.52 62.8487 16.992C62.5554 16.4493 62.1594 16.0387 61.6607 15.76C61.162 15.4667 60.6267 15.32 60.0547 15.32C59.4827 15.32 58.9547 15.4593 58.4707 15.738C57.9867 16.0167 57.5907 16.4273 57.2827 16.97C56.9894 17.498 56.8427 18.1287 56.8427 18.862C56.8427 19.5953 56.9894 20.2407 57.2827 20.798C57.5907 21.3407 57.9867 21.7587 58.4707 22.052C58.9694 22.3453 59.4974 22.492 60.0547 22.492C60.6267 22.492 61.162 22.3527 61.6607 22.074C62.1594 21.7807 62.5554 21.37 62.8487 20.842C63.142 20.2993 63.2887 19.654 63.2887 18.906ZM74.9869 15.342H72.8529V25H69.7289V15.342H68.3429V12.812H69.7289V12.196C69.7289 10.7 70.1542 9.6 71.0049 8.896C71.8555 8.192 73.1389 7.862 74.8549 7.906V10.502C74.1069 10.4873 73.5862 10.612 73.2929 10.876C72.9995 11.14 72.8529 11.6167 72.8529 12.306V12.812H74.9869V15.342ZM80.5688 15.342V21.238C80.5688 21.6487 80.6642 21.9493 80.8548 22.14C81.0602 22.316 81.3975 22.404 81.8668 22.404H83.2968V25H81.3608C78.7648 25 77.4668 23.7387 77.4668 21.216V15.342H76.0148V12.812H77.4668V9.798H80.5688V12.812H83.2968V15.342H80.5688ZM84.7201 18.862C84.7201 17.63 84.9621 16.5373 85.4461 15.584C85.9448 14.6307 86.6121 13.8973 87.4481 13.384C88.2988 12.8707 89.2448 12.614 90.2861 12.614C91.1955 12.614 91.9875 12.7973 92.6621 13.164C93.3515 13.5307 93.9015 13.9927 94.3121 14.55V12.812H97.4141V25H94.3121V23.218C93.9161 23.79 93.3661 24.2667 92.6621 24.648C91.9728 25.0147 91.1735 25.198 90.2641 25.198C89.2375 25.198 88.2988 24.934 87.4481 24.406C86.6121 23.878 85.9448 23.1373 85.4461 22.184C84.9621 21.216 84.7201 20.1087 84.7201 18.862ZM94.3121 18.906C94.3121 18.158 94.1655 17.52 93.8721 16.992C93.5788 16.4493 93.1828 16.0387 92.6841 15.76C92.1855 15.4667 91.6501 15.32 91.0781 15.32C90.5061 15.32 89.9781 15.4593 89.4941 15.738C89.0101 16.0167 88.6141 16.4273 88.3061 16.97C88.0128 17.498 87.8661 18.1287 87.8661 18.862C87.8661 19.5953 88.0128 20.2407 88.3061 20.798C88.6141 21.3407 89.0101 21.7587 89.4941 22.052C89.9928 22.3453 90.5208 22.492 91.0781 22.492C91.6501 22.492 92.1855 22.3527 92.6841 22.074C93.1828 21.7807 93.5788 21.37 93.8721 20.842C94.1655 20.2993 94.3121 19.654 94.3121 18.906ZM103.502 14.704C103.898 14.0587 104.412 13.5527 105.042 13.186C105.688 12.8193 106.421 12.636 107.242 12.636V15.87H106.428C105.46 15.87 104.727 16.0973 104.228 16.552C103.744 17.0067 103.502 17.7987 103.502 18.928V25H100.422V12.812H103.502V14.704Z" fill="#E9F7FA"/>
<defs>
<linearGradient id="paint0_linear_102_885" x1="73" y1="-43.5" x2="15.5" y2="31" gradientUnits="userSpaceOnUse">
<stop stop-color="#27B0C8"/>
<stop offset="1" stop-color="#DF82A6" stop-opacity="0"/>
</linearGradient>
</defs>
</svg>

