<svg width="402" height="451" viewBox="0 0 402 451" fill="none" xmlns="http://www.w3.org/2000/svg">
<path d="M263.833 86.0666C263.696 92.9681 263.353 113.56 263.901 118.747L263.833 86.0666ZM263.833 86.0666C267.171 83.4503 274.533 77.0223 274.761 70.7523C275.059 62.6328 268.04 62.2043 268.04 62.2043L263.833 86.0666ZM203.931 43.5069C203.931 43.5069 204.96 73.8873 207.2 85.3899C209.441 96.8925 214.86 104.583 219.684 107.019C224.508 109.455 231.093 108.914 231.093 108.914L230.544 117.078" stroke="black" stroke-width="1.15966" stroke-linecap="round" stroke-linejoin="round"/>
<path d="M1.46969 37.9625L59.9098 0.0177236L59.9156 0.033879L59.9472 0.122837L60.071 0.471557C60.1798 0.777917 60.3398 1.22933 60.545 1.80952C60.9553 2.9699 61.5464 4.64542 62.2691 6.70594C63.7145 10.827 65.6864 16.488 67.7927 22.6481C72.0052 34.9683 76.755 49.2842 78.904 57.2679C81.0531 65.252 83.1165 73.3545 84.6426 79.461C85.4057 82.5142 86.0344 85.0685 86.4724 86.8594C86.6914 87.7548 86.8626 88.4595 86.9792 88.9402C87.0024 89.036 87.0234 89.1228 87.0422 89.2005C87.0707 89.318 87.094 89.4145 87.1121 89.4893L87.1461 89.6302L87.1547 89.6659L87.1547 89.6662L34.6581 100.42L1.46969 37.9625Z" fill="#1B7B8C" stroke="#1B7B8C" stroke-width="0.0231933"/>
<path fill-rule="evenodd" clip-rule="evenodd" d="M65.5402 2.95496L63.1624 4.30821L62.3393 2.00769L1.45447 37.9589L31.6797 121.364L93.1361 92.8104L71.0045 21.8102C72.0562 21.0208 72.9022 20.3667 72.9022 20.3667L68.6496 4.33076L66.2718 5.45847L65.5402 2.95496Z" fill="white"/>
<path fill-rule="evenodd" clip-rule="evenodd" d="M68.3524 140.106C68.3524 140.106 62.408 125.762 56.7836 118.274C55.389 116.425 54.1315 114.553 53.0341 112.816L53.377 112.681L53.6971 112.523L54.0172 112.387L54.3144 112.275L54.3373 112.252L54.6802 112.117L55.0003 111.981L55.3432 111.846L55.6633 111.688L55.7776 111.643L56.0063 111.553L56.3264 111.418L56.6693 111.26L56.9894 111.124L57.2638 111.012L57.3324 110.989L57.6753 110.831L57.9954 110.696L58.3383 110.561L58.6813 110.403L58.7499 110.38L59.0242 110.267L59.6873 109.974L60.0302 109.839L60.2589 109.726L60.3732 109.681L60.7161 109.546L61.0591 109.388L63.2997 108.44L63.4597 108.373L63.8027 108.215L64.1456 108.08L64.4886 107.922L64.8086 107.786H64.8315L65.1745 107.628L65.5174 107.493L65.8604 107.335L66.2033 107.2L66.3405 107.132L66.5462 107.042L66.8663 106.907L67.2093 106.749L67.5522 106.614L67.8495 106.478L67.8952 106.456L68.2381 106.32L68.5811 106.162L68.924 106.027L69.267 105.892L69.3584 105.847L69.6099 105.734L69.93 105.599L70.273 105.441L70.6159 105.305L70.8445 105.193L71.2789 105.012L71.6219 104.854L71.9648 104.719L72.2849 104.584L72.3307 104.561L72.6279 104.426L72.948 104.29L73.2909 104.155L73.611 103.997L73.8168 103.93L73.9539 103.862L74.274 103.727L74.617 103.591C78.2294 102.012 81.6589 100.524 84.7225 99.2158C84.8597 102.779 84.9512 106.704 84.6997 108.17C84.1967 111.102 81.5674 119.74 84.0366 125.288C86.5059 130.814 68.3524 140.106 68.3524 140.106Z" fill="white"/>
<path d="M84.7225 99.2158C84.8597 102.779 84.9512 106.704 84.6997 108.17C84.1967 111.102 81.5674 119.74 84.0366 125.288C86.5059 130.814 68.3524 140.106 68.3524 140.106C68.3524 140.106 62.408 125.762 56.7836 118.274C55.389 116.425 54.1315 114.553 53.0341 112.816" stroke="black" stroke-width="1.15966" stroke-linecap="round" stroke-linejoin="round"/>
<path fill-rule="evenodd" clip-rule="evenodd" d="M58.4071 426.655C58.4071 426.655 72.628 449.773 86.003 449.773C99.378 449.773 102.419 440.977 104.156 436.511C105.894 432.023 106.237 427.941 106.237 427.941L91.856 428.753C91.856 428.753 89.2268 440.571 84.677 441.721C80.1272 442.849 76.4919 437.639 73.1996 431.279C69.8845 424.941 58.4071 426.655 58.4071 426.655Z" fill="#A6DFE8"/>
<path fill-rule="evenodd" clip-rule="evenodd" d="M171.374 313.638C171.374 313.638 172.357 357.303 173.843 385.315C175.329 413.35 182.097 450.001 182.097 450.001H295.407C298.722 411.523 309.628 326.494 306.473 292.776C305.193 279.198 171.374 313.638 171.374 313.638Z" fill="black" stroke="black" stroke-width="1.15966" stroke-linecap="round" stroke-linejoin="round"/>
<path fill-rule="evenodd" clip-rule="evenodd" d="M173.981 140.264C167.533 148.09 135.41 187.605 135.41 187.605C135.41 187.605 108.638 141.572 102.465 132.37C96.2686 123.168 92.3818 117.778 92.3818 117.778C92.3818 117.778 83.1222 123.394 75.2115 128.694C67.278 133.994 62.4767 138.956 62.4767 138.956C62.4767 138.956 89.8211 234.112 125.831 239.66C141.949 242.141 160.629 231.045 173.958 220.399C172.929 240.382 167.122 308.789 169.614 315.171C171.603 320.223 179.376 324.622 213.717 326.742C248.081 328.862 294.15 311.427 299.111 307.841C304.073 304.255 309.103 299.135 308.6 287.655C308.119 276.153 315.413 209.28 315.413 209.28C315.413 209.28 328.628 182.711 319.688 153.075C314.567 136.024 294.607 127.002 278.534 122.424L278.489 122.401C277.117 121.995 275.699 121.612 274.282 121.274C264.382 118.793 256.837 118.026 256.837 118.026L255.122 118.387C235.391 116.83 217.078 118.905 217.078 118.905C202.674 119.56 183.126 129.145 173.981 140.264Z" fill="#D7F0F7"/>
<path fill-rule="evenodd" clip-rule="evenodd" d="M157.838 278.859C157.838 278.859 175.009 301.345 179.65 357.392C184.268 413.439 170.893 446.21 154.203 449.3C137.536 452.39 134.724 443.91 130.928 439.85C127.11 435.768 122.172 425.844 122.172 425.844L134.061 422.574C134.061 422.574 141.148 443.752 148.099 442.782C155.026 441.79 164.126 415.244 163.303 382.157C162.457 349.093 149.745 320.404 149.745 320.404L157.838 278.859Z" fill="#A6DFE8"/>
<path fill-rule="evenodd" clip-rule="evenodd" d="M82.9158 258.221C82.9158 258.221 123.201 249.109 144.349 261.153C165.498 273.22 163.509 289.842 161.52 310.366C159.553 330.891 152.832 354.527 152.832 354.527L98.76 371.781L51.2045 356.151L64.0765 287.722C64.0765 287.722 67.7117 263.589 82.9158 258.221Z" fill="black"/>
<path fill-rule="evenodd" clip-rule="evenodd" d="M96.4517 260.996C96.4517 260.996 125.191 259.034 137.903 265.394C150.615 271.754 146.659 280.708 142.704 292.436C138.726 304.164 116.594 361.677 116.594 361.677L60.1219 354.505L74.6401 281.858C74.6401 281.858 76.9493 263.77 96.4517 260.996Z" fill="black" stroke="black" stroke-width="0.463865" stroke-linecap="round" stroke-linejoin="round"/>
<path d="M71.9684 6.73188L72.0269 6.70666L96.492 93.563L96.1698 93.7032C95.6989 93.9082 95.008 94.2089 94.1283 94.5913C92.3689 95.3563 89.8542 96.4485 86.8328 97.7576C80.7902 100.376 72.7216 103.862 64.6175 107.332C56.5129 110.802 48.3745 114.256 42.1916 116.811C39.0996 118.089 36.4999 119.14 34.639 119.857C33.7076 120.215 32.967 120.487 32.4445 120.662C32.2708 120.72 32.1252 120.765 32.0072 120.799L2.07585 38.2053C11.8488 33.3023 29.2908 25.447 44.3851 18.7766C52.0331 15.3968 59.0747 12.3228 64.2044 10.0938C66.7692 8.97926 68.8559 8.076 70.3015 7.45138C71.0242 7.13908 71.5867 6.89644 71.9684 6.73188Z" fill="#A6DFE8" stroke="#E9F7FA"/>
<path fill-rule="evenodd" clip-rule="evenodd" d="M16.6584 43.5742L23.7461 64.7525C23.7461 64.7525 52.0736 55.7083 60.0987 52.7086C68.1008 49.6864 71.6446 47.9723 71.6446 47.9723L64.557 24.2679C64.557 24.2679 33.9888 36.1539 16.6584 43.5742Z" fill="#186B7A"/>
<path fill-rule="evenodd" clip-rule="evenodd" d="M368.729 290.136C368.729 290.136 364.843 288.422 362.854 292.008C360.887 295.594 342.78 327.531 342.78 327.531L333.817 342.372C331.6 343.86 330.319 344.717 330.319 344.717L328.65 349.296C328.65 349.296 329.199 351.19 331.051 352.949C331.257 353.13 331.462 353.31 331.714 353.468C335.555 356.084 359.584 367.159 359.584 367.159C359.584 367.159 364.637 370.745 368.432 364.565C372.228 358.362 399.732 310.051 399.732 310.051C399.732 310.051 401.515 307.322 400.852 304.977C400.852 304.977 400.258 302.338 398.52 301.21C398.383 301.12 397.834 301.346 396.92 301.797C389.718 298.684 368.729 290.136 368.729 290.136Z" fill="white" stroke="#A6DFE8" stroke-width="1.15966" stroke-linecap="round" stroke-linejoin="round"/>
<path fill-rule="evenodd" clip-rule="evenodd" d="M309.216 62.3178C309.216 62.3178 303.798 57.7844 303.112 54.3787C302.403 50.9505 306.404 48.5372 309.262 50.0483C312.097 51.5595 315.001 57.5138 315.001 57.5138L309.216 62.3178Z" fill="#E9F7FA"/>
<path fill-rule="evenodd" clip-rule="evenodd" d="M338.23 97.7268L342.963 102.328L343.443 101.741L340.722 95.945L338.23 97.7268Z" fill="black"/>
<path d="M190.51 148.384C190.51 148.384 184.246 170.712 181.433 183.252C178.621 195.792 177.135 203.506 177.135 203.506" stroke="black" stroke-width="1.15966" stroke-linecap="round" stroke-linejoin="round"/>
<path d="M65.585 115.116C65.585 115.116 72.5811 106.207 74.4331 103.659" stroke="black" stroke-width="1.15966" stroke-linecap="round" stroke-linejoin="round"/>
<path d="M220.964 118.544C225.468 147.775 270.531 136.588 270.006 120.258" stroke="#6CA3B7" stroke-width="1.15966" stroke-linecap="round" stroke-linejoin="round"/>
<path d="M210.95 352.182C210.95 352.182 214.906 362.602 218.381 367.496C221.856 372.391 224.645 376.292 224.645 376.292L234.431 447.812" stroke="white" stroke-width="1.15966" stroke-linecap="round" stroke-linejoin="round"/>
<path d="M284.113 338.649L269.572 359.196" stroke="white" stroke-width="1.15966" stroke-linecap="round" stroke-linejoin="round"/>
<path d="M288.319 350.874C288.319 350.874 281.643 357.234 279.974 359.264C278.328 361.316 275.356 364.248 275.356 364.248" stroke="white" stroke-width="1.15966" stroke-linecap="round" stroke-linejoin="round"/>
<path d="M64.9001 146.759C64.9001 146.759 78.5724 135.979 85.1799 131.4C91.7873 126.844 96.5658 123.732 96.5658 123.732" stroke="#6CA3B7" stroke-width="1.15966" stroke-linecap="round" stroke-linejoin="round"/>
<path fill-rule="evenodd" clip-rule="evenodd" d="M175.786 202.987C175.786 202.987 158.205 194.191 151.826 191.259C145.47 188.327 143.824 215.143 141.514 225.248C139.205 235.329 131.935 251.636 131.935 251.636L139.777 249.832C139.777 249.832 142.909 250.824 145.813 250.328C157.724 248.321 163.486 243.832 170.505 233.841L175.718 235.871L182.325 205.445L175.786 202.987Z" fill="white" stroke="black" stroke-width="1.15966" stroke-linecap="round" stroke-linejoin="round"/>
<path d="M80.3999 201.736L80.3999 201.735C79.1465 201.499 78.0825 201.907 77.1907 202.651C76.2987 203.396 75.5793 204.479 75.0167 205.592C74.454 206.705 74.0484 207.847 73.7835 208.711C73.651 209.144 73.5537 209.506 73.4895 209.761C73.4575 209.888 73.4337 209.988 73.4179 210.057C73.41 210.091 73.4041 210.117 73.4002 210.135L73.3958 210.155L73.3947 210.16L73.3944 210.161L73.3944 210.162C73.3944 210.162 73.3944 210.162 73.383 210.159L73.3944 210.162L73.3941 210.163L73.3831 210.159C73.394 210.163 73.3939 210.163 73.3937 210.164L73.3931 210.166L73.3903 210.174L73.3795 210.205L73.3365 210.329L73.1678 210.817L72.5199 212.688C71.9576 214.311 71.145 216.656 70.1435 219.544C68.1404 225.319 65.3818 233.263 62.3596 241.939C56.3151 259.292 49.216 279.573 44.9978 291.29L44.9961 291.295L44.9953 291.294C42.6405 293.832 40.7888 295.946 39.5631 297.524C38.9502 298.313 38.4941 298.968 38.2098 299.475C38.0676 299.728 37.9687 299.944 37.9145 300.121C37.8602 300.298 37.8515 300.434 37.8872 300.529L37.8872 300.53C39.1663 303.977 41.7244 305.779 42.9577 306.478L42.9584 306.478C43.0948 306.568 43.2313 306.635 43.3909 306.703L43.3929 306.704L43.3928 306.704C43.4608 306.748 43.5173 306.776 43.5567 306.793C43.5764 306.801 43.5918 306.807 43.6022 306.81L43.614 306.814L43.617 306.815L43.6177 306.815L80.3999 201.736ZM80.3999 201.736L80.4017 201.736L136.577 203.134L136.577 203.139L136.585 203.131C137.214 202.545 137.705 202.093 138.04 201.789C138.207 201.637 138.335 201.521 138.421 201.444L138.518 201.356L138.543 201.334L138.548 201.329L147 200.608L147.009 200.614L147.045 200.639C147.078 200.661 147.125 200.694 147.185 200.736C147.305 200.82 147.477 200.944 147.683 201.099C148.096 201.411 148.647 201.853 149.201 202.373C149.755 202.892 150.312 203.49 150.736 204.114C151.159 204.738 151.45 205.387 151.472 206.01L151.472 206.01L151.473 206.013C151.724 206.688 151.792 207.497 151.541 208.533C151.21 209.897 148.899 216.917 145.62 226.682C142.34 236.447 138.092 248.954 133.885 261.291C129.679 273.628 125.513 285.795 122.399 294.877C120.843 299.418 119.549 303.188 118.644 305.823C118.192 307.141 117.837 308.174 117.595 308.878L117.318 309.682L117.248 309.888L117.23 309.94L117.225 309.953L117.224 309.956C117.224 309.956 117.224 309.956 117.224 309.957M80.3999 201.736L117.224 309.957M117.224 309.957L117.224 309.957L117.224 309.957L117.223 309.96L117.218 309.969C117.214 309.978 117.209 309.991 117.201 310.007C117.195 310.02 117.188 310.034 117.18 310.05C117.167 310.078 117.15 310.112 117.13 310.151C117.068 310.275 116.973 310.451 116.846 310.662C116.591 311.083 116.207 311.641 115.686 312.189C114.644 313.284 113.058 314.336 110.88 314.167L110.88 314.167M117.224 309.957L110.88 314.167M47.3646 307.661C47.3646 307.661 45.3984 307.616 43.615 306.826M47.3646 307.661C47.3646 307.661 106.489 313.863 110.879 314.179C115.246 314.517 117.235 309.961 117.235 309.961L43.615 306.826M47.3646 307.661C47.3658 307.649 47.3661 307.649 47.3665 307.649M47.3646 307.661L47.3665 307.649M43.615 306.826C43.615 306.826 43.5236 306.804 43.3864 306.713L43.615 306.826ZM110.88 314.167C108.685 314.009 92.8067 312.38 77.4767 310.79M110.88 314.167L77.4767 310.79M77.4767 310.79C69.8118 309.995 62.2841 309.21 56.6726 308.623M77.4767 310.79L56.6726 308.623M56.6726 308.623C53.8669 308.33 51.5402 308.086 49.9149 307.916M56.6726 308.623L49.9149 307.916M49.9149 307.916L48.0309 307.719M49.9149 307.916L48.0309 307.719M48.0309 307.719L47.5356 307.667M48.0309 307.719L47.5356 307.667M47.5356 307.667L47.4087 307.654M47.5356 307.667L47.4087 307.654M47.4087 307.654L47.3766 307.65M47.4087 307.654L47.3766 307.65M47.3766 307.65L47.3685 307.649M47.3766 307.65L47.3685 307.649M47.3685 307.649L47.3665 307.649M47.3685 307.649L47.3665 307.649" fill="#1B7B8C" stroke="#1B7B8C" stroke-width="0.0231933"/>
<path d="M151.391 227.797C151.391 227.797 147.276 237.066 144.715 241.555C142.154 246.043 139.777 249.832 139.777 249.832" stroke="black" stroke-width="1.15966" stroke-linecap="round" stroke-linejoin="round"/>
<path d="M157.427 230.481C157.427 230.481 154.524 238.059 151.071 243.111C147.596 248.163 144.807 250.441 144.807 250.441" stroke="black" stroke-width="1.15966" stroke-linecap="round" stroke-linejoin="round"/>
<path d="M163.784 232.51C163.784 232.51 161.315 237.968 158.251 241.893C155.187 245.795 151.689 248.975 151.689 248.975" stroke="black" stroke-width="1.15966" stroke-linecap="round" stroke-linejoin="round"/>
<path d="M181.639 246.787C181.639 246.787 184.52 236.593 187.241 225.902C189.962 215.234 191.493 205.558 191.493 205.558" stroke="#6CA3B7" stroke-width="1.15966" stroke-linecap="round" stroke-linejoin="round"/>
<path fill-rule="evenodd" clip-rule="evenodd" d="M203.931 43.5066C203.931 43.5066 204.96 73.887 207.2 85.3897C209.441 96.8923 214.86 104.583 219.684 107.019C224.508 109.455 231.093 108.914 231.093 108.914L230.544 117.078L226.451 118.183C228.623 128.761 236.443 132.641 247.211 131.558C258.986 130.363 264.29 124.341 266.691 119.582L263.901 118.747C263.353 113.56 263.696 92.9678 263.833 86.0663C267.171 83.45 274.533 77.0221 274.761 70.752C275.059 62.6325 268.04 62.204 268.04 62.204C268.04 62.204 275.059 29.7712 240.238 27.5383C205.417 25.328 203.931 43.5066 203.931 43.5066Z" fill="white"/>
<path fill-rule="evenodd" clip-rule="evenodd" d="M256.426 64.4143C256.631 66.0156 256.792 67.4366 256.974 68.474C257.729 72.6014 259.741 70.8197 260.564 67.9553C261.387 65.0684 264.085 62.7227 268.04 62.204C268.04 62.204 275.059 62.6325 274.762 70.752C274.465 78.8489 263.833 86.0663 263.833 86.0663C263.833 86.0663 263.879 92.201 263.651 98.8319C270.647 93.667 278.672 82.2095 282.924 63.7377C287.177 45.2884 283.816 37.214 275.448 27.1775C267.08 17.1634 257.66 16.1259 243.005 16.7123C228.35 17.2987 210.882 18.043 210.882 18.043C194.832 19.3286 187.287 16.2387 185.641 21.1781C184.018 26.1174 191.997 28.9818 191.997 28.9818C191.997 28.9818 182.669 31.1921 182.737 36.2217C182.806 41.2287 196.272 41.364 196.272 41.364C196.272 41.364 189.574 46.6417 192.043 49.303C194.512 51.9419 204.206 50.5886 204.206 50.5886C204.206 50.5886 208.184 49.6414 215.249 48.04C217.901 47.4536 221.102 46.4161 224.577 45.4012C224.303 46.3936 224.417 47.4762 225.492 48.4911C228.441 51.2878 242.593 44.8824 242.593 44.8824C242.593 44.8824 245.817 51.4682 253.271 48.7843C255.488 52.6185 256.289 58.0315 256.426 64.4143Z" fill="black" stroke="black" stroke-width="0.463865" stroke-linecap="round" stroke-linejoin="round"/>
<path d="M237.037 73.3007C238.312 73.3007 239.346 71.8567 239.346 70.0755C239.346 68.2942 238.312 66.8503 237.037 66.8503C235.762 66.8503 234.728 68.2942 234.728 70.0755C234.728 71.8567 235.762 73.3007 237.037 73.3007Z" fill="black"/>
<path d="M212.917 70.2335C214.192 70.2335 215.226 68.7895 215.226 67.0083C215.226 65.227 214.192 63.783 212.917 63.783C211.641 63.783 210.608 65.227 210.608 67.0083C210.608 68.7895 211.641 70.2335 212.917 70.2335Z" fill="black"/>
<path d="M222.725 67.5721C222.725 67.5721 220.05 80.473 221.994 82.8412C223.937 85.2094 227.572 83.7208 227.572 83.7208" stroke="black" stroke-width="1.15966" stroke-linecap="round" stroke-linejoin="round"/>
<path d="M228.006 91.1409C228.006 91.1409 229.812 91.795 232.419 90.329C235.048 88.8629 236.534 86.4948 236.534 86.4948" stroke="black" stroke-width="1.15966" stroke-linecap="round" stroke-linejoin="round"/>
<path d="M270.234 67.1441C264.907 69.0837 261.615 74.9929 262.095 80.4059" stroke="black" stroke-width="1.15966" stroke-linecap="round" stroke-linejoin="round"/>
<path d="M268.681 74.4277L264.177 72.3763" stroke="black" stroke-width="1.15966" stroke-linecap="round" stroke-linejoin="round"/>
<path d="M234.592 60.6246C234.592 60.6246 236.169 60.2639 238.821 60.6021C241.474 60.9402 242.868 61.8419 242.868 61.8419" stroke="black" stroke-width="1.15966" stroke-linecap="round" stroke-linejoin="round"/>
<path d="M209.396 59.0696C212.071 57.9878 215.135 58.3935 217.764 59.4076" stroke="black" stroke-width="1.15966" stroke-linecap="round" stroke-linejoin="round"/>
<path d="M251.555 97.7721C251.555 97.7721 248.926 102.463 243.142 105.395C237.357 108.327 231.093 108.914 231.093 108.914" stroke="black" stroke-width="1.15966" stroke-linecap="round" stroke-linejoin="round"/>
<path d="M315.404 55.4711L315.405 55.4713L341.667 96.1911L338.483 98.9061L307.742 62.8317L307.742 62.8293L307.742 62.8095C307.743 62.792 307.744 62.7659 307.747 62.7316C307.752 62.6631 307.763 62.562 307.783 62.4321C307.825 62.1723 307.909 61.7974 308.076 61.3372C308.409 60.4168 309.077 59.1552 310.413 57.7919C311.761 56.4288 313.011 55.8491 313.923 55.61C314.38 55.4905 314.752 55.456 315.01 55.4515C315.138 55.4492 315.239 55.4544 315.307 55.4601C315.341 55.463 315.367 55.466 315.384 55.4683L315.404 55.4711Z" fill="#A6DFE8" stroke="#1B7B8C" stroke-width="0.0231933"/>
<path d="M77.0395 198.268L77.0792 198.276L77.1195 198.277L142.211 199.9L142.227 199.901L142.243 199.9L142.243 199.9L142.243 199.9L142.244 199.9L142.246 199.9L142.259 199.9C142.271 199.899 142.289 199.899 142.314 199.899C142.363 199.898 142.437 199.897 142.532 199.899C142.721 199.901 142.992 199.911 143.314 199.938C143.962 199.994 144.796 200.122 145.58 200.406C146.368 200.692 147.058 201.118 147.482 201.738C147.894 202.34 148.101 203.194 147.797 204.447C147.472 205.785 145.172 212.775 141.887 222.557C138.608 232.32 134.36 244.827 130.153 257.164C125.946 269.501 121.781 281.667 118.667 290.749C117.111 295.29 115.817 299.06 114.912 301.695C114.46 303.012 114.105 304.045 113.863 304.75L113.587 305.553L113.516 305.759L113.499 305.808C113.496 305.815 113.492 305.823 113.488 305.833C113.474 305.862 113.453 305.906 113.425 305.964C113.367 306.078 113.279 306.245 113.16 306.445C112.92 306.847 112.558 307.377 112.069 307.895C111.091 308.931 109.64 309.886 107.647 309.733L107.645 309.733C105.472 309.576 89.6118 307.947 74.2771 306.357C66.6138 305.562 59.0869 304.776 53.4759 304.19C50.6703 303.897 48.3438 303.653 46.7186 303.483L44.8347 303.286L44.3394 303.234L44.2125 303.221L44.1804 303.217L44.1723 303.216L44.1703 303.216C44.1699 303.216 44.1696 303.216 44.1175 303.713L44.1696 303.216L44.1506 303.214L44.1319 303.213H44.1318L44.1315 303.213L44.1314 303.213L44.1282 303.213L44.1125 303.213C44.0981 303.212 44.0757 303.211 44.046 303.21C43.9866 303.206 43.8981 303.201 43.7856 303.191C43.5602 303.172 43.2396 303.137 42.8633 303.075C42.1057 302.949 41.1463 302.715 40.2878 302.287C39.4281 301.859 38.7155 301.261 38.3671 300.428C38.023 299.605 37.9938 298.455 38.7001 296.831C40.196 293.391 48.1734 270.758 55.7639 249.024C59.5622 238.148 63.2676 227.486 66.0234 219.543C67.4014 215.571 68.5419 212.279 69.3379 209.98C69.7359 208.831 70.0478 207.93 70.2602 207.316L70.5025 206.615L70.5646 206.436L70.5803 206.391L70.5842 206.379L70.5852 206.376C70.5854 206.376 70.5856 206.375 70.113 206.212L70.5856 206.375L70.5957 206.346L70.6021 206.316L70.6021 206.316L70.6021 206.316L70.6023 206.315L70.6031 206.311L70.6071 206.293C70.6107 206.277 70.6162 206.252 70.6238 206.219C70.6389 206.154 70.6619 206.057 70.6931 205.933C70.7556 205.685 70.8507 205.33 70.9804 204.907C71.2405 204.059 71.6367 202.944 72.1825 201.865C72.7313 200.779 73.4144 199.763 74.2338 199.079C75.0399 198.406 75.9602 198.065 77.0395 198.268Z" fill="#A6DFE8" stroke="#E9F7FA"/>
<path d="M95.5234 257.048C99.0018 254.998 100.446 251.065 98.75 248.265C97.0536 245.466 92.8587 244.858 89.3803 246.909C85.9019 248.96 84.4573 252.892 86.1537 255.692C87.8501 258.492 92.0451 259.099 95.5234 257.048Z" fill="#186B7A"/>
<path fill-rule="evenodd" clip-rule="evenodd" d="M151.895 196.334L151.392 191.101C151.392 191.101 145.539 187.628 140.898 192.68C136.279 197.732 132.324 203.912 130.335 206.122C128.346 208.31 132.735 211.242 138.337 207.836C143.961 204.408 147.002 200.596 147.002 200.596L151.895 196.334Z" fill="white"/>
<path fill-rule="evenodd" clip-rule="evenodd" d="M8.1304 271.597C8.1304 271.597 74.2052 271.439 86.5971 280.889C98.989 290.339 117.485 355.836 117.485 355.836L152.832 354.528C152.832 354.528 146.887 419.394 132.667 426.882C121.029 433.016 68.055 437.753 40.1618 427.829C21.4825 419.349 11.9257 393.524 7.2616 374.714C2.59749 355.881 4.95241 351.1 4.95241 351.1L10.371 336.62C10.371 336.62 -0.191823 288.535 1.11138 281.543C2.43745 274.529 8.1304 271.597 8.1304 271.597Z" fill="black"/>
<path fill-rule="evenodd" clip-rule="evenodd" d="M10.371 336.621C10.371 336.621 -0.191823 288.535 1.11138 281.544C1.24856 280.822 1.43147 280.145 1.6601 279.536C20.4537 276.965 71.896 281.092 77.9548 288.603C84.9738 297.331 93.0674 342.53 93.0674 342.53C93.0674 342.53 81.0871 342.868 59.0469 341.312C36.9838 339.778 10.371 336.621 10.371 336.621Z" fill="black"/>
<path fill-rule="evenodd" clip-rule="evenodd" d="M151.62 365.174C149.242 383.894 143.252 421.289 132.666 426.882C129.854 428.371 124.573 429.769 117.828 430.919C116.342 429.431 114.81 427.424 113.461 424.74C109.003 415.786 107.357 374.218 107.357 374.218L151.62 365.174Z" fill="black"/>
<path fill-rule="evenodd" clip-rule="evenodd" d="M101.23 432.881C81.087 434.415 56.3947 433.603 40.1618 427.829C21.4825 419.349 11.9256 393.524 7.26152 374.714C4.42648 363.279 4.17498 357.032 4.42648 353.874C12.1085 353.964 33.0284 354.528 56.5547 357.911C86.2084 362.174 87.5345 368.85 91.8327 382.856C94.8507 392.735 99.0118 418.469 101.23 432.881Z" fill="black"/>
<path fill-rule="evenodd" clip-rule="evenodd" d="M74.6171 103.591L76.4461 101.2C76.4461 101.2 76.5833 93.7351 78.1837 88.4348C79.7842 83.1572 86.163 83.6759 85.4543 86.8109C84.7455 89.946 84.7226 99.2157 84.7226 99.2157C81.659 100.524 78.2295 102.012 74.6171 103.591Z" fill="white"/>
<path fill-rule="evenodd" clip-rule="evenodd" d="M367.243 287.857C367.243 287.857 363.356 286.143 361.367 289.729C359.401 293.316 341.293 325.252 341.293 325.252L329.816 344.22C329.816 344.22 326.386 348.596 330.228 351.189C334.069 353.806 358.098 364.88 358.098 364.88C358.098 364.88 363.151 368.466 366.946 362.286C370.741 356.084 398.246 307.773 398.246 307.773C398.246 307.773 401.744 302.36 397.08 300.24C392.416 298.12 367.243 287.857 367.243 287.857Z" fill="#A6DFE8" stroke="#E9F7FA" stroke-linecap="round" stroke-linejoin="round"/>
<path fill-rule="evenodd" clip-rule="evenodd" d="M388.941 296.79C384.46 294.918 379.064 292.708 374.789 290.948L374.057 294.58L385.855 299.384L388.941 296.79Z" fill="#1B7B8C" stroke="#1B7B8C" stroke-width="1.15966" stroke-linecap="round" stroke-linejoin="round"/>
<path d="M314.338 55.8215C314.338 55.8215 316.647 51.5588 319.962 52.6188C321.792 53.2052 322.363 56.1147 322.98 59.3399C323.506 62.0464 324.101 65.001 325.358 66.5573C326.89 68.4292 326.913 65.7228 326.913 65.7228L328.468 65.7453C328.468 65.7679 328.422 72.7371 324.146 67.5271C322.637 65.6551 322.02 62.4975 321.449 59.6106C320.923 56.859 320.42 54.378 319.482 54.0848C317.425 53.4308 315.71 56.5658 315.687 56.5658L314.338 55.8215Z" fill="#E9F7FA"/>
<path d="M261.181 228.923L255.397 226.218" stroke="black" stroke-width="1.15966" stroke-linecap="round" stroke-linejoin="round"/>
<path d="M261.73 225.429C259.741 225.361 257.409 225.361 255.397 226.218" stroke="black" stroke-width="1.15966" stroke-linecap="round" stroke-linejoin="round"/>
<path d="M151.392 191.101C151.392 191.101 145.539 187.628 140.898 192.68C136.279 197.732 132.324 203.912 130.335 206.122C128.346 208.31 132.735 211.242 138.337 207.836C143.961 204.408 147.002 200.596 147.002 200.596" stroke="black" stroke-width="1.15966" stroke-linecap="round" stroke-linejoin="round"/>
<path d="M74.6171 103.591L76.4461 101.2C76.4461 101.2 76.5833 93.7351 78.1837 88.4348C79.7842 83.1572 86.163 83.6759 85.4543 86.8109C84.7455 89.946 84.7226 99.2157 84.7226 99.2157" stroke="black" stroke-width="1.15966" stroke-linecap="round" stroke-linejoin="round"/>
<path d="M137.902 265.395C150.614 271.755 146.659 280.709 142.704 292.437C139.48 301.977 124.413 341.064 118.812 355.634" stroke="white" stroke-width="1.15966" stroke-linecap="round" stroke-linejoin="round"/>
<path d="M86.2313 280.911C98.6004 290.361 117.097 355.858 117.097 355.858L124.413 355.588" stroke="white" stroke-width="1.15966" stroke-linecap="round" stroke-linejoin="round"/>
<path d="M117.828 430.919C116.342 429.431 114.81 427.424 113.461 424.74C109.003 415.786 107.357 374.218 107.357 374.218L151.62 365.174" stroke="white" stroke-width="1.15966" stroke-linecap="round" stroke-linejoin="round"/>
<path d="M4.42639 353.874C12.1084 353.964 33.0283 354.528 56.5546 357.911C86.2083 362.174 87.5343 368.85 91.8326 382.856C94.8506 392.735 99.0117 418.469 101.229 432.881" stroke="white" stroke-width="1.15966" stroke-linecap="round" stroke-linejoin="round"/>
<path d="M1.66016 279.536C20.4537 276.965 71.8961 281.092 77.9548 288.603C84.9738 297.331 93.0674 342.53 93.0674 342.53C93.0674 342.53 81.0871 342.868 59.0469 341.312C36.9839 339.778 10.3711 336.621 10.3711 336.621" stroke="white" stroke-width="1.15966" stroke-linecap="round" stroke-linejoin="round"/>
<path d="M148.282 204.566C146.956 210.025 113.965 305.992 113.965 305.992C113.965 305.992 111.998 310.571 107.609 310.232" stroke="white" stroke-width="1.15966" stroke-linecap="round" stroke-linejoin="round"/>
<path d="M138.176 191.349L135.41 187.605" stroke="black" stroke-width="1.15966" stroke-linecap="round" stroke-linejoin="round"/>
<path d="M66.6826 135.122L69.8606 142.88" stroke="#6CA3B7" stroke-width="1.15966" stroke-linecap="round" stroke-linejoin="round"/>
<path d="M71.5997 131.22L74.9378 138.956" stroke="#6CA3B7" stroke-width="1.15966" stroke-linecap="round" stroke-linejoin="round"/>
<path d="M76.4689 127.859L80.1727 135.008" stroke="#6CA3B7" stroke-width="1.15966" stroke-linecap="round" stroke-linejoin="round"/>
<path d="M81.6356 124.499L85.1794 131.401" stroke="#6CA3B7" stroke-width="1.15966" stroke-linecap="round" stroke-linejoin="round"/>
<path d="M86.4369 121.454L90.2093 127.95" stroke="#6CA3B7" stroke-width="1.15966" stroke-linecap="round" stroke-linejoin="round"/>
<path d="M175.581 236.457L183.538 239.907" stroke="#6CA3B7" stroke-width="1.15966" stroke-linecap="round" stroke-linejoin="round"/>
<path d="M177.135 229.286L185.435 232.827" stroke="#6CA3B7" stroke-width="1.15966" stroke-linecap="round" stroke-linejoin="round"/>
<path d="M178.462 223.24L187.241 225.901" stroke="#6CA3B7" stroke-width="1.15966" stroke-linecap="round" stroke-linejoin="round"/>
<path d="M179.834 216.88L188.773 219.473" stroke="#6CA3B7" stroke-width="1.15966" stroke-linecap="round" stroke-linejoin="round"/>
<path d="M181.136 210.859L190.053 213.519" stroke="#6CA3B7" stroke-width="1.15966" stroke-linecap="round" stroke-linejoin="round"/>
<path d="M182.188 205.987L190.967 208.647" stroke="#6CA3B7" stroke-width="1.15966" stroke-linecap="round" stroke-linejoin="round"/>
<path d="M315.412 209.279C315.412 209.279 303.134 259.147 270.097 271.033C237.06 282.919 174.323 242.344 174.323 242.344L182.897 202.784L255.396 226.218L283.975 164.464" stroke="black" stroke-width="1.15966" stroke-linecap="round" stroke-linejoin="round"/>
<path d="M1.45447 37.959L31.6797 121.364L74.434 103.659" stroke="black" stroke-width="1.15966" stroke-linecap="round" stroke-linejoin="round"/>
<path d="M202.651 36.7402C206.515 33.8533 212.459 30.6506 220.644 28.6658" stroke="white" stroke-width="1.15966" stroke-linecap="round" stroke-linejoin="round"/>
<path d="M202.811 25.9138C207.407 24.5838 210.333 23.7948 216.026 23.2537" stroke="white" stroke-width="1.15966" stroke-linecap="round" stroke-linejoin="round"/>
<path d="M218.243 37.9127C220.507 36.176 223.547 34.3491 227.365 32.7252" stroke="white" stroke-width="1.15966" stroke-linecap="round" stroke-linejoin="round"/>
<path d="M327.325 81.3291L330.754 85.9076M313.767 63.2181L324.147 77.1115L313.767 63.2181Z" stroke="#186B7A" stroke-width="1.15966" stroke-linecap="round" stroke-linejoin="round"/>
<path d="M160.079 443.12C151.368 446.661 145.035 441.902 145.035 441.902C145.035 441.902 140.691 438.316 137.925 431.956C135.158 425.573 134.404 423.52 134.404 423.52" stroke="black" stroke-width="1.15966" stroke-linecap="round" stroke-linejoin="round"/>
<path d="M94.8963 444.902C87.0084 446.504 80.7668 441.136 80.7668 441.136C80.7668 441.136 77.7946 439.106 76.057 436.241C74.3194 433.377 73.9993 432.813 73.9993 432.813" stroke="black" stroke-width="1.15966" stroke-linecap="round" stroke-linejoin="round"/>
<path d="M161.451 343.139C160.537 339.846 158.456 331.41 156.421 328.907" stroke="black" stroke-width="1.15966" stroke-linecap="round" stroke-linejoin="round"/>
<path d="M163.737 335.627C162.823 332.357 160.674 325.365 158.707 321.418" stroke="black" stroke-width="1.15966" stroke-linecap="round" stroke-linejoin="round"/>
<path d="M165.453 326.967C164.515 323.697 162.275 316.434 160.4 312.758" stroke="black" stroke-width="1.15966" stroke-linecap="round" stroke-linejoin="round"/>
<path d="M167.945 318.735C167.03 315.465 163.6 305.157 161.589 301.075" stroke="black" stroke-width="1.15966" stroke-linecap="round" stroke-linejoin="round"/>
<path d="M69.4269 7.28536L68.6495 4.33077L66.2718 5.45847L65.5401 2.95496L63.1624 4.30821L62.3393 2.00769L58.704 4.15033L1.45447 37.959" stroke="black" stroke-width="1.15966" stroke-linecap="round" stroke-linejoin="round"/>
<path d="M266.165 58.776C266.577 56.701 266.92 54.3102 267.08 51.8969C267.148 50.7467 267.171 49.5964 267.125 48.4462" stroke="white" stroke-width="1.15966" stroke-linecap="round" stroke-linejoin="round"/>
<path d="M271.745 56.0021C272.294 52.9122 272.728 49.1908 272.5 45.6498" stroke="white" stroke-width="1.15966" stroke-linecap="round" stroke-linejoin="round"/>
<path d="M275.654 59.5427C276.454 56.5205 277.209 52.8442 277.277 49.3032" stroke="white" stroke-width="1.15966" stroke-linecap="round" stroke-linejoin="round"/>
<path d="M70.7523 397.336C70.7523 397.336 66.6141 379.09 45.1455 373.383C23.6769 367.677 12.1767 371.557 6.89526 373.226" stroke="white" stroke-width="1.15966" stroke-linecap="round" stroke-linejoin="round"/>
</svg>
